<?xml version="1.0" encoding="UTF-8"?><svg id="Capa_3" xmlns="http://www.w3.org/2000/svg" viewBox="0 0 331.71 96.34"><defs><style>.cls-1{fill:#062541;}</style></defs><g><path class="cls-1" d="M133.39,66.1v-12.91h5.86c1.4,0,2.64,.27,3.71,.8,1.07,.53,1.9,1.28,2.51,2.25,.6,.96,.9,2.1,.9,3.4s-.3,2.44-.9,3.4c-.6,.97-1.44,1.72-2.51,2.25-1.07,.53-2.31,.8-3.71,.8h-5.86Zm3.01-2.43h2.71c.86,0,1.61-.16,2.24-.49,.63-.33,1.12-.79,1.47-1.4,.35-.61,.53-1.32,.53-2.13s-.17-1.54-.53-2.14c-.35-.6-.84-1.07-1.47-1.39-.63-.33-1.38-.49-2.24-.49h-2.71v8.04Z"/><path class="cls-1" d="M151.61,54.8c-.54,0-.98-.15-1.31-.46s-.5-.69-.5-1.14,.17-.84,.5-1.14c.33-.31,.77-.46,1.31-.46s.96,.14,1.3,.43c.34,.29,.51,.66,.51,1.12,0,.48-.17,.88-.5,1.19-.33,.31-.77,.47-1.31,.47Zm-1.44,11.3v-9.92h2.88v9.92h-2.88Z"/><path class="cls-1" d="M157.47,66.1v-13.68h2.88v13.68h-2.88Z"/><path class="cls-1" d="M167.84,66.25c-.76,0-1.42-.13-1.97-.4-.55-.26-.98-.62-1.28-1.08-.3-.45-.45-.96-.45-1.53s.14-1.09,.43-1.54c.29-.45,.75-.8,1.37-1.04,.63-.25,1.45-.37,2.47-.37h2.62v1.66h-2.32c-.68,0-1.14,.11-1.39,.33-.25,.22-.38,.5-.38,.83,0,.37,.14,.66,.43,.88,.29,.21,.68,.32,1.17,.32s.93-.11,1.32-.33c.39-.22,.66-.56,.82-1.01l.44,1.35c-.21,.61-.59,1.09-1.14,1.43-.55,.34-1.27,.51-2.14,.51Zm3.02-.15v-1.94l-.18-.42v-3.47c0-.61-.19-1.09-.56-1.44s-.95-.52-1.72-.52c-.53,0-1.05,.08-1.56,.25-.51,.17-.95,.39-1.32,.67l-1.01-2.01c.54-.39,1.19-.69,1.95-.89,.76-.2,1.54-.31,2.32-.31,1.51,0,2.69,.36,3.52,1.07,.84,.71,1.25,1.83,1.25,3.34v5.66h-2.69Z"/><path class="cls-1" d="M183.93,56.04c.79,0,1.49,.16,2.11,.47,.62,.31,1.11,.79,1.47,1.44,.36,.65,.53,1.47,.53,2.48v5.68h-2.88v-5.24c0-.8-.18-1.39-.53-1.77-.35-.38-.85-.57-1.48-.57-.45,0-.86,.1-1.23,.29-.36,.2-.65,.49-.85,.87-.2,.38-.3,.89-.3,1.51v4.9h-2.88v-9.92h2.75v2.75l-.52-.83c.36-.66,.87-1.17,1.53-1.53,.66-.36,1.42-.53,2.27-.53Z"/><path class="cls-1" d="M199.55,66.1v-12.91h2.47l5.5,9.11h-1.31l5.39-9.11h2.49v12.91h-2.78l-.04-8.61h.55l-4.35,7.23h-1.33l-4.41-7.23h.61v8.61h-2.78Z"/><path class="cls-1" d="M221.75,66.25c-.76,0-1.42-.13-1.97-.4-.55-.26-.98-.62-1.28-1.08-.3-.45-.45-.96-.45-1.53s.14-1.09,.43-1.54c.29-.45,.75-.8,1.37-1.04,.63-.25,1.45-.37,2.47-.37h2.62v1.66h-2.32c-.68,0-1.14,.11-1.39,.33-.25,.22-.38,.5-.38,.83,0,.37,.14,.66,.43,.88,.29,.21,.68,.32,1.17,.32s.93-.11,1.32-.33c.39-.22,.66-.56,.82-1.01l.44,1.35c-.21,.61-.59,1.09-1.14,1.43-.55,.34-1.27,.51-2.14,.51Zm3.02-.15v-1.94l-.18-.42v-3.47c0-.61-.19-1.09-.56-1.44s-.95-.52-1.72-.52c-.53,0-1.05,.08-1.56,.25-.51,.17-.95,.39-1.32,.67l-1.01-2.01c.54-.39,1.19-.69,1.95-.89,.76-.2,1.54-.31,2.32-.31,1.51,0,2.69,.36,3.52,1.07,.84,.71,1.25,1.83,1.25,3.34v5.66h-2.69Z"/><path class="cls-1" d="M231.82,66.1v-9.92h2.75v2.82l-.39-.83c.29-.7,.77-1.23,1.42-1.59s1.45-.54,2.38-.54v2.67c-.11-.02-.22-.04-.32-.06s-.21-.02-.3-.02c-.81,0-1.46,.23-1.94,.68s-.72,1.16-.72,2.1v4.68h-2.88Z"/><path class="cls-1" d="M240.34,58.62v-2.21h6.88v2.21h-6.88Zm5.24,7.63c-1.17,0-2.08-.3-2.73-.89-.65-.6-.98-1.48-.98-2.66v-8.7h2.89v8.65c0,.42,.11,.74,.32,.98,.21,.23,.51,.35,.88,.35,.47,0,.86-.12,1.18-.37l.76,2.03c-.28,.21-.63,.37-1.04,.47-.41,.1-.84,.16-1.28,.16Z"/><path class="cls-1" d="M252.75,54.8c-.54,0-.98-.15-1.31-.46s-.5-.69-.5-1.14,.17-.84,.5-1.14c.33-.31,.77-.46,1.31-.46s.96,.14,1.3,.43c.34,.29,.51,.66,.51,1.12,0,.48-.17,.88-.5,1.19-.33,.31-.77,.47-1.31,.47Zm-1.44,11.3v-9.92h2.88v9.92h-2.88Z"/><path class="cls-1" d="M264.64,56.04c.79,0,1.49,.16,2.11,.47,.62,.31,1.11,.79,1.47,1.44,.36,.65,.53,1.47,.53,2.48v5.68h-2.88v-5.24c0-.8-.18-1.39-.53-1.77-.35-.38-.85-.57-1.48-.57-.45,0-.86,.1-1.23,.29-.36,.2-.65,.49-.85,.87-.2,.38-.3,.89-.3,1.51v4.9h-2.88v-9.92h2.75v2.75l-.52-.83c.36-.66,.87-1.17,1.53-1.53,.66-.36,1.42-.53,2.27-.53Z"/><path class="cls-1" d="M278.01,66.25c-1.13,0-2.12-.22-2.97-.66-.85-.44-1.51-1.05-1.97-1.82-.47-.77-.7-1.64-.7-2.63s.22-1.86,.67-2.64c.45-.77,1.07-1.38,1.88-1.82,.8-.44,1.71-.66,2.72-.66s1.85,.21,2.63,.63c.78,.42,1.4,1.01,1.85,1.77,.45,.76,.68,1.68,.68,2.75,0,.11,0,.24-.02,.38-.01,.14-.02,.27-.04,.4h-8.06v-1.68h6.55l-1.12,.5c.01-.52-.09-.96-.29-1.35-.21-.38-.5-.68-.87-.89-.37-.21-.8-.32-1.29-.32s-.93,.11-1.3,.32c-.38,.22-.67,.52-.88,.9-.21,.39-.31,.85-.31,1.37v.44c0,.55,.12,1.03,.37,1.44,.25,.41,.58,.72,1.01,.93,.43,.22,.95,.32,1.55,.32,.52,0,.97-.08,1.37-.24s.77-.4,1.1-.72l1.53,1.66c-.45,.52-1.03,.91-1.71,1.19-.69,.28-1.48,.42-2.38,.42Z"/><path class="cls-1" d="M285.81,66.1v-1.75l5.85-6.92,.5,.96h-6.23v-2.21h8.56v1.75l-5.84,6.9-.54-.94h6.55v2.21h-8.83Z"/><path class="cls-1" d="M137.65,92.83c-1.03,0-2.03-.14-2.98-.42-.95-.28-1.72-.64-2.3-1.08l1.01-2.25c.54,.39,1.19,.72,1.95,.97,.76,.25,1.53,.38,2.31,.38,.59,0,1.07-.06,1.43-.18s.63-.29,.8-.49c.17-.2,.26-.44,.26-.71,0-.34-.14-.62-.41-.82s-.63-.37-1.08-.5c-.45-.13-.94-.25-1.47-.37-.53-.12-1.06-.26-1.59-.42-.53-.17-1.03-.39-1.48-.66s-.8-.64-1.07-1.09c-.26-.45-.4-1.01-.4-1.69,0-.74,.2-1.41,.59-2.02,.39-.61,.99-1.09,1.8-1.46,.81-.36,1.82-.54,3.03-.54,.81,0,1.61,.1,2.41,.29,.79,.2,1.48,.48,2.07,.85l-.94,2.25c-.58-.33-1.17-.58-1.79-.75-.61-.17-1.21-.25-1.77-.25s-1.06,.06-1.42,.19c-.36,.13-.62,.3-.78,.52-.17,.22-.25,.47-.25,.74,0,.34,.14,.62,.41,.83,.27,.21,.63,.37,1.07,.49,.44,.12,.93,.23,1.47,.35,.54,.12,1.08,.26,1.6,.43,.53,.17,1.01,.39,1.46,.65,.44,.26,.8,.62,1.08,1.07,.28,.45,.41,1,.41,1.67,0,.73-.2,1.39-.6,1.99s-1.01,1.09-1.82,1.46-1.83,.55-3.04,.55Z"/><path class="cls-1" d="M147.94,96.34c-.5,0-1.01-.08-1.51-.24-.5-.16-.92-.38-1.25-.66l1.05-2.07c.22,.21,.48,.37,.77,.48,.29,.11,.58,.17,.88,.17,.39,0,.71-.1,.95-.29s.46-.51,.66-.95l.52-1.22,.22-.31,3.58-8.56h2.75l-4.48,10.53c-.32,.81-.69,1.44-1.1,1.89-.41,.45-.87,.77-1.37,.95s-1.05,.28-1.65,.28Zm1.7-3.34l-4.41-10.31h2.95l3.45,8.32-1.99,1.99Z"/><path class="cls-1" d="M162.8,92.76c-.85,0-1.66-.1-2.43-.3-.77-.2-1.39-.46-1.86-.77l.94-2.05c.47,.27,1.01,.5,1.63,.67,.62,.18,1.23,.27,1.83,.27,.66,0,1.13-.08,1.41-.24s.41-.38,.41-.66c0-.23-.11-.41-.32-.53s-.5-.21-.85-.27c-.35-.06-.74-.12-1.17-.18-.43-.06-.86-.15-1.28-.26-.42-.11-.82-.27-1.18-.47-.36-.2-.65-.48-.87-.84s-.32-.82-.32-1.38c0-.63,.18-1.18,.55-1.67,.37-.49,.89-.86,1.57-1.13,.68-.27,1.49-.41,2.45-.41,.69,0,1.38,.08,2.07,.23,.69,.15,1.28,.37,1.76,.64l-.98,2.05c-.47-.27-.94-.46-1.43-.57-.49-.11-.95-.17-1.39-.17-.66,0-1.14,.09-1.44,.26s-.44,.39-.44,.66c0,.25,.11,.43,.33,.56,.22,.13,.51,.22,.87,.29,.36,.06,.75,.12,1.18,.18,.43,.06,.85,.15,1.27,.26,.42,.11,.81,.27,1.17,.47,.36,.2,.65,.48,.87,.84s.32,.82,.32,1.38c0,.6-.18,1.14-.55,1.61-.37,.47-.9,.85-1.59,1.12-.69,.27-1.54,.41-2.54,.41Z"/><path class="cls-1" d="M169.81,85.13v-2.21h6.88v2.21h-6.88Zm5.24,7.63c-1.17,0-2.08-.3-2.73-.89-.65-.6-.98-1.48-.98-2.66v-8.7h2.89v8.65c0,.42,.11,.74,.32,.98,.21,.23,.51,.35,.88,.35,.47,0,.86-.12,1.18-.37l.76,2.03c-.28,.21-.63,.37-1.04,.47-.41,.1-.84,.16-1.28,.16Z"/><path class="cls-1" d="M185.71,92.76c-1.13,0-2.12-.22-2.97-.66-.85-.44-1.51-1.05-1.97-1.82-.47-.77-.7-1.64-.7-2.63s.22-1.86,.67-2.64c.45-.77,1.07-1.38,1.88-1.82,.8-.44,1.71-.66,2.72-.66s1.85,.21,2.63,.63c.78,.42,1.4,1.01,1.85,1.77,.45,.76,.68,1.68,.68,2.75,0,.11,0,.24-.02,.38-.01,.14-.02,.27-.04,.4h-8.06v-1.68h6.55l-1.12,.5c.01-.52-.09-.96-.29-1.35-.21-.38-.5-.68-.87-.89-.37-.21-.8-.32-1.29-.32s-.93,.11-1.3,.32c-.38,.22-.67,.52-.88,.9-.21,.39-.31,.85-.31,1.37v.44c0,.55,.12,1.03,.37,1.44,.25,.41,.58,.72,1.01,.93,.43,.22,.95,.32,1.55,.32,.52,0,.97-.08,1.37-.24s.77-.4,1.1-.72l1.53,1.66c-.45,.52-1.03,.91-1.71,1.19-.69,.28-1.48,.42-2.38,.42Z"/><path class="cls-1" d="M206.87,82.54c.79,0,1.48,.16,2.09,.47,.61,.31,1.08,.79,1.43,1.44,.34,.65,.52,1.47,.52,2.48v5.68h-2.88v-5.24c0-.8-.16-1.39-.49-1.77-.33-.38-.78-.57-1.37-.57-.43,0-.81,.1-1.14,.29-.33,.19-.59,.47-.77,.85-.18,.37-.27,.86-.27,1.47v4.98h-2.88v-5.24c0-.8-.16-1.39-.49-1.77-.33-.38-.8-.57-1.41-.57-.42,0-.79,.1-1.13,.29-.33,.19-.59,.47-.77,.85s-.28,.86-.28,1.47v4.98h-2.88v-9.92h2.75v2.69l-.52-.77c.33-.68,.82-1.19,1.46-1.54,.64-.35,1.36-.53,2.16-.53,.91,0,1.71,.23,2.4,.69,.69,.46,1.14,1.16,1.37,2.11l-1.01-.28c.33-.76,.86-1.37,1.59-1.83,.72-.46,1.57-.69,2.53-.69Z"/><path class="cls-1" d="M218.6,92.76c-.85,0-1.66-.1-2.43-.3-.77-.2-1.39-.46-1.86-.77l.94-2.05c.47,.27,1.01,.5,1.63,.67,.62,.18,1.23,.27,1.83,.27,.66,0,1.13-.08,1.41-.24s.41-.38,.41-.66c0-.23-.11-.41-.32-.53s-.5-.21-.85-.27c-.35-.06-.74-.12-1.17-.18-.43-.06-.86-.15-1.28-.26-.42-.11-.82-.27-1.18-.47-.36-.2-.65-.48-.87-.84s-.32-.82-.32-1.38c0-.63,.18-1.18,.55-1.67,.37-.49,.89-.86,1.57-1.13,.68-.27,1.49-.41,2.45-.41,.69,0,1.38,.08,2.07,.23,.69,.15,1.28,.37,1.76,.64l-.98,2.05c-.47-.27-.94-.46-1.43-.57-.49-.11-.95-.17-1.39-.17-.66,0-1.14,.09-1.44,.26s-.44,.39-.44,.66c0,.25,.11,.43,.33,.56,.22,.13,.51,.22,.87,.29,.36,.06,.75,.12,1.18,.18,.43,.06,.85,.15,1.27,.26,.42,.11,.81,.27,1.17,.47,.36,.2,.65,.48,.87,.84s.32,.82,.32,1.38c0,.6-.18,1.14-.55,1.61-.37,.47-.9,.85-1.59,1.12-.69,.27-1.54,.41-2.54,.41Z"/><path class="cls-1" d="M236.93,90.21h7.03v2.4h-9.99v-12.91h9.75v2.4h-6.79v8.11Zm-.22-5.33h6.21v2.34h-6.21v-2.34Z"/><path class="cls-1" d="M253.92,82.54c.79,0,1.49,.16,2.11,.47,.62,.31,1.11,.79,1.47,1.44,.36,.65,.53,1.47,.53,2.48v5.68h-2.88v-5.24c0-.8-.18-1.39-.53-1.77-.35-.38-.85-.57-1.48-.57-.45,0-.86,.1-1.23,.29-.36,.2-.65,.49-.85,.87-.2,.38-.3,.89-.3,1.51v4.9h-2.88v-9.92h2.75v2.75l-.52-.83c.36-.66,.87-1.17,1.53-1.53,.66-.36,1.42-.53,2.27-.53Z"/><path class="cls-1" d="M266.57,92.13c-.9,0-1.72-.2-2.47-.6-.75-.4-1.35-.96-1.79-1.68-.44-.72-.66-1.56-.66-2.52s.22-1.82,.66-2.54c.44-.72,1.04-1.28,1.79-1.67,.75-.39,1.57-.59,2.47-.59s1.61,.17,2.24,.51c.63,.34,1.13,.86,1.48,1.58,.36,.71,.53,1.62,.53,2.71s-.18,1.99-.53,2.7c-.36,.71-.85,1.23-1.48,1.58-.63,.34-1.38,.52-2.24,.52Zm.46,4.2c-.93,0-1.83-.11-2.7-.34-.87-.23-1.59-.57-2.17-1.02l1.14-2.08c.43,.36,.96,.64,1.59,.84,.63,.2,1.28,.31,1.93,.31,1.01,0,1.74-.23,2.21-.68,.47-.45,.7-1.13,.7-2.03v-1.48l.18-2.51-.06-2.53v-2.12h2.73v8.26c0,1.83-.48,3.19-1.44,4.07s-2.34,1.32-4.13,1.32Zm.13-6.55c.5,0,.95-.1,1.35-.31,.39-.21,.7-.5,.92-.87,.22-.37,.33-.79,.33-1.27s-.11-.92-.33-1.28c-.22-.36-.53-.64-.92-.84-.39-.2-.84-.29-1.35-.29s-.94,.1-1.34,.29c-.4,.2-.71,.48-.94,.84-.23,.36-.34,.79-.34,1.28s.11,.9,.34,1.27c.23,.37,.54,.66,.94,.87,.4,.21,.84,.31,1.34,.31Z"/><path class="cls-1" d="M278.44,81.31c-.54,0-.98-.15-1.31-.46s-.5-.69-.5-1.14,.17-.84,.5-1.14c.33-.31,.77-.46,1.31-.46s.96,.14,1.3,.43c.34,.29,.51,.66,.51,1.12,0,.48-.17,.88-.5,1.19-.33,.31-.77,.47-1.31,.47Zm-1.44,11.3v-9.92h2.88v9.92h-2.88Z"/><path class="cls-1" d="M290.33,82.54c.79,0,1.49,.16,2.11,.47,.62,.31,1.11,.79,1.47,1.44,.36,.65,.53,1.47,.53,2.48v5.68h-2.88v-5.24c0-.8-.18-1.39-.53-1.77-.35-.38-.85-.57-1.48-.57-.45,0-.86,.1-1.23,.29-.36,.2-.65,.49-.85,.87-.2,.38-.3,.89-.3,1.51v4.9h-2.88v-9.92h2.75v2.75l-.52-.83c.36-.66,.87-1.17,1.53-1.53,.66-.36,1.42-.53,2.27-.53Z"/><path class="cls-1" d="M303.7,92.76c-1.13,0-2.12-.22-2.97-.66-.85-.44-1.51-1.05-1.97-1.82-.47-.77-.7-1.64-.7-2.63s.22-1.86,.67-2.64c.45-.77,1.07-1.38,1.88-1.82,.8-.44,1.71-.66,2.72-.66s1.85,.21,2.63,.63c.78,.42,1.4,1.01,1.85,1.77,.45,.76,.68,1.68,.68,2.75,0,.11,0,.24-.02,.38-.01,.14-.02,.27-.04,.4h-8.06v-1.68h6.55l-1.12,.5c.01-.52-.09-.96-.29-1.35-.21-.38-.5-.68-.87-.89-.37-.21-.8-.32-1.29-.32s-.93,.11-1.3,.32c-.38,.22-.67,.52-.88,.9-.21,.39-.31,.85-.31,1.37v.44c0,.55,.12,1.03,.37,1.44,.25,.41,.58,.72,1.01,.93,.43,.22,.95,.32,1.55,.32,.52,0,.97-.08,1.37-.24s.77-.4,1.1-.72l1.53,1.66c-.45,.52-1.03,.91-1.71,1.19-.69,.28-1.48,.42-2.38,.42Z"/><path class="cls-1" d="M317.09,92.76c-1.13,0-2.12-.22-2.97-.66-.85-.44-1.51-1.05-1.97-1.82-.47-.77-.7-1.64-.7-2.63s.22-1.86,.67-2.64c.45-.77,1.07-1.38,1.88-1.82,.8-.44,1.71-.66,2.72-.66s1.85,.21,2.63,.63c.78,.42,1.4,1.01,1.85,1.77,.45,.76,.68,1.68,.68,2.75,0,.11,0,.24-.02,.38-.01,.14-.02,.27-.04,.4h-8.06v-1.68h6.55l-1.12,.5c.01-.52-.09-.96-.29-1.35-.21-.38-.5-.68-.87-.89-.37-.21-.8-.32-1.29-.32s-.93,.11-1.3,.32c-.38,.22-.67,.52-.88,.9-.21,.39-.31,.85-.31,1.37v.44c0,.55,.12,1.03,.37,1.44,.25,.41,.58,.72,1.01,.93,.43,.22,.95,.32,1.55,.32,.52,0,.97-.08,1.37-.24s.77-.4,1.1-.72l1.53,1.66c-.45,.52-1.03,.91-1.71,1.19-.69,.28-1.48,.42-2.38,.42Z"/><path class="cls-1" d="M325.55,92.61v-9.92h2.75v2.82l-.39-.83c.29-.7,.77-1.23,1.42-1.59s1.45-.54,2.38-.54v2.67c-.11-.02-.22-.04-.32-.06s-.21-.02-.3-.02c-.81,0-1.46,.23-1.94,.68s-.72,1.16-.72,2.1v4.68h-2.88Z"/></g><g><path class="cls-1" d="M43.02,81.14c-2.01,.09-4.02,.08-5.95-.65-1.67-.64-2.55-1.8-2.66-3.47-.12-1.89-.21-3.79-.21-5.68-.01-21.78,0-43.55,0-65.33v-.99c2.01,0,3.92-.08,5.82,.02,3.13,.15,6.26,.43,9.21,1.49,4.71,1.7,8.1,4.91,10.68,8.94,2.9,4.54,4.48,9.53,5.42,14.74,.37,2.07,.65,4.14,.83,6.22,3.07,0,6.13,0,9.2-.02,1.05,0,1.46,.32,1.76,1.22,2.93,8.55,5.88,17.09,8.83,25.63,1.83-3.68,3.05-7.62,3.76-11.77,1.31-7.69,.92-15.3-1.44-22.75-3.46-10.93-10.32-19.18-21.24-24.1C59.55,1.26,51.54,.15,43.38,.07,29.28-.06,15.18,.03,1.07,.03,.73,.03,.39,.03,0,.03V2.28c.82,0,1.55-.07,2.27,.01,1.77,.19,3.59,.24,5.27,.73,2.59,.77,4.45,2.39,4.74,5.18,.12,1.22,.24,2.44,.24,3.66,.02,18.63,.03,37.27,.01,55.9,0,3.21-.14,6.42-.2,9.63-.03,1.6-.74,2.87-1.92,3.95-1.63,1.5-3.65,2.09-5.83,2.21-1.49,.08-2.99,.01-4.55,.01v2.38H.97c13.05,0,26.1-.05,39.14,.02,5.79,.03,11.48-.42,17.05-1.66,0-2.95,0-5.91,0-8.86-3.81,3.85-8.68,5.46-14.16,5.7Z"/><path class="cls-1" d="M70.96,53.9h-.31c.14,2.91,.32,5.81,.42,8.72,.18,5.39,.35,10.78,.52,16.17,2.4-1.42,4.63-3.09,6.65-5.02-.95-2.6-1.91-5.2-2.86-7.8-1.47-4.02-2.94-8.05-4.41-12.07Z"/><path class="cls-1" d="M57.17,84.3c0,2.76,0,5.52,0,8.28,0,.89,.31,1.14,1.24,1.13,4.03-.04,8.06-.06,12.08,.01,1.22,.02,1.58-.31,1.54-1.46-.16-4.49-.31-8.99-.45-13.49-2.66,1.58-5.53,2.86-8.59,3.9-1.93,.65-3.87,1.19-5.82,1.62Z"/><path class="cls-1" d="M57.29,36.41c-.05,.42-.11,.69-.11,.96,0,12.69,0,25.39-.01,38.08,.18-.18,.36-.37,.53-.56,2.34-2.56,4-5.5,5.24-8.67,2.57-6.58,3.33-13.45,3.49-20.4,.07-3.14,0-6.27-.29-9.39-2.49,0-4.97-.01-7.46-.01-.46,0-.91,0-1.4,0Z"/><path class="cls-1" d="M123.74,37.81c0-1.04-.27-1.43-1.48-1.42-5.6,.05-11.19,.03-16.79-.01-.96,0-1.39,.23-1.7,1.12-4.24,12.42-8.53,24.83-12.81,37.25-.12,.34-.27,.67-.54,1.33-.37-1.02-.62-1.69-.85-2.35-1.21-3.49-2.41-6.99-3.62-10.48-1.31,2.64-2.94,5.16-4.91,7.52-.89,1.06-1.82,2.06-2.8,2.99,2.26,6.16,4.52,12.32,6.74,18.5,.41,1.13,.95,1.53,2.23,1.47,2.2-.11,4.41-.11,6.61,0,1.18,.06,1.67-.28,2.05-1.33,4.46-12.36,8.98-24.7,13.49-37.05,.19-.52,.39-1.03,.58-1.55-.28,13.32-1.54,26.54-1,39.9,4.76,0,9.38,0,13.99,0,.87,0,.79-.52,.79-1.04,0-2.96,0-5.91,0-8.87,0-15.33,0-30.66,.03-45.99Z"/></g></svg>